HIERARCHY
ROOT Hips
{
	OFFSET 0.000000 0.000000 0.000000
	CHANNELS 6 Xposition Yposition Zposition Zrotation Yrotation Xrotation 
	JOINT LHipJoint
	{
		OFFSET 0.000000 0.000000 0.000000
		CHANNELS 3 Zrotation Yrotation Xrotation
		JOINT LeftUpLeg
		{
			OFFSET 1.363060 -1.794630 0.839290
			CHANNELS 3 Zrotation Yrotation Xrotation
			JOINT LeftLeg
			{
				OFFSET 2.448110 -6.726130 0.000000
				CHANNELS 3 Zrotation Yrotation Xrotation
				JOINT LeftFoot
				{
					OFFSET 2.562200 -7.039590 0.000000
					CHANNELS 3 Zrotation Yrotation Xrotation
					JOINT LeftToeBase
					{
						OFFSET 0.157640 -0.433110 2.322550
						CHANNELS 3 Zrotation Yrotation Xrotation
						End Site
						{
							OFFSET 0.000000 0.000000 0.000000
						}
					}
				}
			}
		}
	}
	JOINT RHipJoint
	{
		OFFSET 0.000000 0.000000 0.000000
		CHANNELS 3 Zrotation Yrotation Xrotation
		JOINT RightUpLeg
		{
			OFFSET -1.305520 -1.794630 0.839290
			CHANNELS 3 Zrotation Yrotation Xrotation
			JOINT RightLeg
			{
				OFFSET -2.542530 -6.985550 0.000000
				CHANNELS 3 Zrotation Yrotation Xrotation
				JOINT RightFoot
				{
					OFFSET -2.568260 -7.056230 0.000000
					CHANNELS 3 Zrotation Yrotation Xrotation
					JOINT RightToeBase
					{
						OFFSET -0.164730 -0.452590 2.363150
						CHANNELS 3 Zrotation Yrotation Xrotation
						End Site
						{
							OFFSET 0.000000 0.000000 0.000000
						}
					}
				}
			}
		}
	}
}
MOTION
Frames: 11
Frame Time: 0.008333
3.869976 17.251565 1.040300 -8.190982 -71.073220 15.783324 -10.364849 1.640984 5.510401 -5.773882 -17.712302 -14.210214 -1.460828 0.397178 18.612589 1.149492 5.226904 -10.126775 -0.304799 -0.000000 -41.184200 9.681643 -0.856695 -1.352304 8.916297 -7.375522 -23.888036 -0.997326 -2.705181 48.919649 -3.340659 -20.005176 13.114547 -7.455200 -0.000000 -81.731600
3.898733 17.270180 1.077655 -8.461067 -71.087108 16.307989 -10.422363 1.574959 5.423438 -5.717813 -17.750537 -14.182968 -1.429807 0.367585 18.029795 1.152331 5.338081 -9.733210 -0.259801 0.000000 -41.033100 9.753354 -0.470698 -1.322337 8.669824 -6.888484 -27.198475 -1.260248 -2.832898 52.953624 -3.308239 -19.625489 18.502836 -8.660400 0.000000 -82.678800
3.928031 17.289648 1.114782 -8.807132 -71.228637 16.994620 -10.486722 1.498061 5.319059 -5.646890 -17.686364 -14.248486 -1.393444 0.329725 17.419927 1.159096 5.474386 -9.326500 -0.212100 -0.000000 -40.869600 9.774417 -0.061086 -1.226245 8.381187 -6.155953 -30.568099 -1.425365 -2.926610 56.589364 -3.238821 -18.516055 23.708080 -9.283200 0.000000 -82.736500
3.957682 17.309733 1.151937 -9.267682 -71.507569 17.878927 -10.561228 1.413460 5.195580 -5.554153 -17.490920 -14.413803 -1.353215 0.284909 16.788160 1.166142 5.610698 -8.911601 -0.161200 0.000000 -40.709800 9.746046 0.355590 -1.069921 8.052523 -5.200028 -34.008453 -1.512914 -3.009127 59.823881 -3.124218 -16.634478 28.418123 -9.134699 0.000000 -82.215400
3.987592 17.330098 1.189322 -9.872877 -71.924914 18.985695 -10.647662 1.323046 5.051521 -5.439302 -17.151285 -14.678393 -1.310709 0.234769 16.140515 1.171159 5.730872 -8.492830 -0.107699 0.000000 -40.561100 9.673043 0.768430 -0.862949 7.680626 -4.061528 -37.531932 -1.554880 -3.098132 62.658045 -2.962407 -14.029574 32.386833 -8.159500 0.000000 -81.406900
4.017971 17.350420 1.227088 -10.648697 -72.473132 20.332390 -10.746630 1.226910 4.885051 -5.306240 -16.668929 -15.036501 -1.267514 0.181259 15.485261 1.172954 5.826214 -8.074383 -0.052500 0.000000 -40.424500 9.559710 1.172917 -0.615335 7.259412 -2.785403 -41.143163 -1.582555 -3.202787 65.087499 -2.758994 -10.861621 35.455523 -6.461301 -0.000000 -80.601700
4.048976 17.370403 1.265388 -11.616941 -73.137584 21.934650 -10.857889 1.124013 4.694820 -5.161835 -16.058025 -15.479873 -1.224933 0.126396 14.832517 1.171536 5.895881 -7.660167 0.003399 0.000000 -40.295500 9.407683 1.568544 -0.335597 6.781712 -1.413716 -44.838658 -1.618105 -3.323882 67.101260 -2.524907 -7.391147 37.553589 -4.281300 0.000001 -80.032900
4.080891 17.389815 1.304356 -12.799641 -73.900497 23.808544 -10.980934 1.012588 4.480478 -5.012842 -15.341518 -16.001577 -1.183857 0.072293 14.194523 1.167784 5.944597 -7.253962 0.058900 0.000000 -40.166100 9.215589 1.955712 -0.030795 6.240853 0.015978 -48.606738 -1.671824 -3.455972 68.681349 -2.273464 -3.940620 38.691335 -1.943300 -0.000000 -79.743000
4.113918 17.408510 1.344149 -14.218193 -74.743149 25.972761 -11.115405 0.890834 4.243387 -4.865540 -14.547385 -16.598341 -1.144701 0.020857 13.584424 1.163222 5.981179 -6.859054 0.113400 0.000000 -40.027501 8.979385 2.332990 0.293941 5.633050 1.472222 -52.429302 -1.742461 -3.589354 69.797026 -2.019351 -0.846851 38.965149 0.212500 -0.000000 -79.811699
4.148163 17.426400 1.384990 -15.896560 -75.648027 28.450402 -11.261571 0.757177 3.987034 -4.725000 -13.705132 -17.271552 -1.107432 -0.026430 13.014809 1.159725 6.016519 -6.478369 0.166600 0.000000 -39.871200 8.693884 2.695107 0.634513 4.959214 2.926101 -56.287286 -1.820767 -3.713540 70.413792 -1.775953 1.612237 38.534016 1.912500 -0.000001 -80.188400
4.183457 17.443440 1.427034 -17.858228 -76.598872 31.268183 -11.420429 0.610435 3.716970 -4.595524 -12.842576 -18.027342 -1.071833 -0.068883 12.496100 1.159012 6.060418 -6.114358 0.218700 0.000001 -39.690500 8.354264 3.032003 0.988530 4.226010 4.351723 -60.163706 -1.893181 -3.819251 70.497249 -1.555050 3.260683 37.601852 2.997900 -0.000000 -80.724900
